<svg xmlns="http://www.w3.org/2000/svg" viewBox="0 0 32 32" width="256" height="256">
  <rect width="32" height="32" rx="7" fill="#E9E2FF"></rect>
  <circle cx="16" cy="16" r="13" fill="#6B4DFF"></circle>
  <path d="M16 3 A13 13 0 0 1 16 29 A6.5 6.5 0 0 1 16 16 A6.5 6.5 0 0 0 16 3 Z" fill="#FFFFFF"></path>
  <path d="M16 6.5 L16.9 8.7 L19.3 8.9 L17.5 10.4 L18 12.7 L16 11.5 L14 12.7 L14.5 10.4 L12.7 8.9 L15.1 8.7 Z" fill="#F2B441"></path>
  <path d="M13 19 Q13 17 15 17 L19 17 Q21 17 21 19 L21 22 Q21 24 19 24 L16 24 L14 26 L14.5 24 Q13 24 13 22 Z" fill="#6B4DFF"></path>
  <circle cx="17" cy="20.5" r=".9" fill="#FFFFFF"></circle>
</svg>